<svg xmlns="http://www.w3.org/2000/svg" width="500" height="500" viewBox="0 0 500 500" version="1.1"><path d="M 400.167 165.939 C 376.400 174.418, 376.398 174.367, 400.562 182.994 C 421.890 190.608, 417.110 190.608, 438.438 182.994 C 462.654 174.349, 462.654 174.413, 438.507 165.885 C 418.367 158.772, 420.262 158.769, 400.167 165.939 M 449.250 183.101 C 447.146 183.881, 447 184.517, 447 192.909 C 447 197.954, 446.552 202.159, 445.976 202.515 C 444.958 203.144, 445.117 206.126, 446.321 209 C 446.666 209.825, 447.073 213.200, 447.225 216.500 C 447.606 224.814, 451.345 225.640, 451.747 217.500 C 451.883 214.750, 452.519 210.808, 453.161 208.740 C 454.044 205.891, 454.047 204.436, 453.171 202.740 C 452.535 201.508, 451.899 196.397, 451.758 191.383 C 451.504 182.391, 451.469 182.277, 449.250 183.101 M 397 191.066 C 397 197.987, 398.076 199.509, 404.746 202.016 C 415.434 206.034, 434.030 204.370, 440.748 198.795 C 441.899 197.839, 442.641 186, 441.550 186 C 441.302 186, 436.748 187.575, 431.430 189.500 C 426.112 191.425, 420.896 193, 419.839 193 C 418.782 193, 413.392 191.425, 407.862 189.500 C 402.331 187.575, 397.625 186, 397.403 186 C 397.181 186, 397 188.280, 397 191.066 M 113 201.129 C 113 201.723, 117.050 208.616, 122 216.446 L 131 230.684 131 241.283 C 131 253.172, 130.690 252.625, 137.961 253.589 L 143.307 254.298 142.737 243.947 L 142.167 233.596 150.583 218.378 C 158.422 204.204, 156.026 189.725, 147.568 200.163 C 147.418 200.348, 144.718 205.338, 141.570 211.250 C 134.711 224.128, 135.747 223.996, 129 212.858 C 125.975 207.864, 122.600 203.208, 121.500 202.511 C 118.668 200.717, 113 199.795, 113 201.129 M 168.465 218.139 C 156.593 229.082, 160.159 244.030, 176.569 252.109 C 195.299 261.329, 210.275 235.662, 194.195 221.899 C 183.648 212.871, 175.476 211.677, 168.465 218.139 M 217.445 214.959 C 207.227 219.097, 205.735 231.515, 214.580 238.805 L 218.201 241.790 214.031 242.495 C 208.666 243.401, 208.226 244.823, 211.552 250.498 L 214.266 255.130 210.948 258.554 L 207.630 261.977 210.010 264.510 C 224.931 280.393, 255.021 266.277, 241.704 249.642 C 239.416 246.784, 239.416 246.784, 231.175 248.464 C 221.171 250.505, 218.726 250.082, 226.449 247.647 C 237.909 244.035, 243.415 235.483, 240.025 226.565 C 239.059 224.025, 239.097 224, 244.025 224 C 249.554 224, 249.454 224.091, 247.839 220.547 C 246.760 218.177, 246.201 218, 239.800 218 C 234.894 218, 231.796 217.426, 229 216 C 224.902 213.909, 220.922 213.551, 217.445 214.959 M 223.217 222.561 C 218.164 226.100, 216.539 233.539, 220.051 237.051 C 222.609 239.609, 225.473 238.941, 229.250 234.906 C 235.519 228.210, 230.325 217.582, 223.217 222.561 M 177.509 224.171 C 175.991 225.366, 173.915 228.178, 172.896 230.421 C 166.367 244.799, 179.761 253.330, 188.134 240.127 C 195.346 228.756, 187.211 216.540, 177.509 224.171 M 230 257.729 C 225.834 259.063, 221.316 259.899, 219.837 259.608 C 217.130 259.076, 213.997 261.333, 215.443 262.774 C 218.591 265.912, 235.805 261.556, 237.477 257.199 C 238.291 255.079, 238.265 255.081, 230 257.729 M 352.633 276.750 C 349.955 286.081, 352.270 292.565, 357.437 290.211 C 362.756 287.787, 363.670 278.113, 358.456 279.422 C 356.335 279.954, 356 279.695, 356 277.519 C 356 274.623, 353.413 274.032, 352.633 276.750 M 380 276.500 C 380 277.325, 380.733 278, 381.629 278 C 383.032 278, 383.163 278.847, 382.570 284.085 C 381.944 289.614, 382.047 290.138, 383.691 289.825 C 385.116 289.554, 385.565 288.359, 385.804 284.195 C 386.065 279.646, 386.448 278.780, 388.554 277.980 C 392.720 276.396, 391.290 275, 385.500 275 C 381.278 275, 380 275.348, 380 276.500 M 400.506 281.941 C 399.816 288.806, 400.416 291.984, 402.085 290.315 C 403.856 288.544, 404.440 275, 402.745 275 C 401.571 275, 401.037 276.655, 400.506 281.941 M 420.383 277.750 C 420.681 279.262, 421.218 282.643, 421.578 285.262 C 422.412 291.348, 427 292.285, 427 286.370 C 427 285.551, 427.450 285.160, 428 285.500 C 428.550 285.840, 429 286.991, 429 288.059 C 429 290.240, 431.246 290.656, 432.725 288.750 C 434.485 286.482, 438.371 276.038, 437.703 275.370 C 436.557 274.223, 434.263 276.934, 433.608 280.210 C 432.866 283.918, 431.314 282.968, 430.827 278.509 C 430.610 276.523, 429.863 275.396, 428.607 275.158 C 427.090 274.870, 426.828 275.235, 427.290 277 C 428.101 280.103, 425.897 284.964, 424.867 282.345 C 424.467 281.330, 424.109 279.262, 424.070 277.750 C 424.017 275.654, 423.505 275, 421.921 275 C 420.187 275, 419.931 275.458, 420.383 277.750 M 447.800 281.694 C 447.400 288.941, 447.685 291, 449.088 291 C 451.454 291, 452.181 275.702, 449.838 275.225 C 448.445 274.942, 448.115 275.992, 447.800 281.694 M 453.925 275.250 C 452.450 280.174, 453.248 292.200, 454.932 290.417 C 456.767 288.474, 457.353 275, 455.601 275 C 454.721 275, 453.966 275.113, 453.925 275.250 M 363.641 281.209 C 361.832 287.961, 363.347 291.955, 366.979 290.011 C 369.174 288.837, 369.702 289.898, 367.847 291.753 C 367.028 292.572, 366.132 292.606, 364.757 291.870 C 363.142 291.005, 362.879 291.137, 363.169 292.667 C 364.461 299.471, 371.748 293.706, 372.640 285.174 C 373.420 277.708, 371.128 276.293, 369.118 283 C 367.621 287.996, 365.987 288.202, 366.280 283.359 C 366.527 279.265, 364.585 277.683, 363.641 281.209 M 392.061 280.939 C 387.759 285.241, 390.475 292.471, 395.530 290.168 C 398.496 288.817, 398.890 286.583, 396 287.500 C 393.089 288.424, 393.548 286.527, 396.568 285.151 C 398.411 284.311, 399.047 283.347, 398.818 281.740 C 398.391 278.731, 394.706 278.294, 392.061 280.939 M 407 281 C 402.748 285.252, 405.520 292.451, 410.530 290.168 C 413.496 288.817, 413.890 286.583, 411 287.500 C 408.125 288.412, 408.530 286.535, 411.500 285.182 C 414.303 283.905, 414.857 280.543, 412.418 279.607 C 409.937 278.655, 409.140 278.860, 407 281 M 439.655 280.829 C 435.752 285.141, 438.485 291.907, 443.378 290.046 C 446.752 288.763, 446.852 286.748, 443.500 287.589 C 442.082 287.945, 441 287.784, 441 287.217 C 441 286.667, 442.075 285.947, 443.390 285.617 C 446.236 284.903, 447.484 282.289, 445.895 280.373 C 444.310 278.463, 441.618 278.660, 439.655 280.829 M 394 283.059 C 394 283.641, 394.450 283.840, 395 283.500 C 395.550 283.160, 396 282.684, 396 282.441 C 396 282.198, 395.550 282, 395 282 C 394.450 282, 394 282.477, 394 283.059 M 409 283.059 C 409 283.641, 409.450 283.840, 410 283.500 C 410.550 283.160, 411 282.684, 411 282.441 C 411 282.198, 410.550 282, 410 282 C 409.450 282, 409 282.477, 409 283.059 M 441.500 283 C 441.160 283.550, 441.359 284, 441.941 284 C 442.523 284, 443 283.550, 443 283 C 443 282.450, 442.802 282, 442.559 282 C 442.316 282, 441.840 282.450, 441.500 283 M 356.035 284.934 C 354.668 287.489, 354.728 288, 356.393 288 C 357.703 288, 359 285.970, 359 283.918 C 359 282.291, 357.102 282.941, 356.035 284.934" stroke="none" fill="#a8a8a8" fill-rule="evenodd"/><path d="M 85.538 149.198 C 84.460 149.824, 81.667 151.794, 79.333 153.576 C 76.998 155.358, 73.468 157.351, 71.488 158.004 C 67.858 159.202, 66.498 164.690, 69.581 165.700 C 70.248 165.918, 70.499 164.950, 70.238 163.170 C 69.868 160.644, 70.180 160.214, 72.758 159.698 C 74.376 159.375, 77.680 157.514, 80.100 155.564 C 89.346 148.114, 90.112 148.335, 96.088 160.174 C 99.494 166.922, 101.500 168.668, 99.574 163.210 C 95.208 150.835, 90.618 146.253, 85.538 149.198 M 101.373 150.731 C 99.161 153.119, 98.925 154.031, 99.503 157.981 C 100.465 164.552, 101.988 165.289, 101.325 158.862 C 100.691 152.713, 101.640 151.339, 107.891 149.355 L 111.500 148.210 107.702 148.105 C 104.770 148.024, 103.328 148.622, 101.373 150.731 M 109.102 153.657 C 107.216 154.958, 106.388 156, 107.241 156 C 108.947 156, 113.789 152.421, 113 151.743 C 112.725 151.507, 110.971 152.368, 109.102 153.657 M 114.015 154.750 C 114.004 157.142, 113.538 158.021, 112.250 158.079 C 110.851 158.142, 110.801 158.275, 112 158.741 C 112.825 159.062, 114.048 160.039, 114.718 160.912 C 116.266 162.929, 116.535 155.375, 115 153 C 114.264 151.862, 114.027 152.284, 114.015 154.750 M 80.373 158.918 C 78.104 159.948, 75.940 161.289, 75.564 161.896 C 74.574 163.499, 75.099 163.320, 81.090 160.018 C 87.134 156.687, 86.713 156.039, 80.373 158.918 M 106.667 157.667 C 106.300 158.033, 106.029 159.271, 106.063 160.417 C 106.122 162.332, 106.204 162.307, 107.085 160.105 C 108.064 157.657, 107.861 156.472, 106.667 157.667 M 89.392 159.420 C 89.764 160.476, 90.517 163.343, 91.065 165.791 C 91.614 168.239, 92.747 171.424, 93.583 172.871 C 95.104 175.500, 95.104 175.500, 94.412 172.500 C 94.031 170.850, 93.399 167.558, 93.008 165.184 C 92.617 162.811, 91.491 160.111, 90.507 159.184 C 88.820 157.598, 88.755 157.612, 89.392 159.420 M 113 165.368 C 113 166.185, 112.213 167.059, 111.250 167.311 C 110.173 167.592, 110.558 167.813, 112.250 167.884 C 114.997 168, 116.127 165.815, 114 164.500 C 113.450 164.160, 113 164.551, 113 165.368 M 68.990 169 C 68.711 170.903, 68.925 173.868, 69.550 176.750 C 69.857 178.165, 69.563 179, 68.760 179 C 66.838 179, 65.138 182.315, 63.501 189.258 C 60.877 200.388, 62.577 199.697, 65.945 188.265 C 67.315 183.611, 68.776 180.655, 70.038 179.980 C 71.117 179.402, 71.965 178.158, 71.923 177.215 C 71.802 174.518, 69.235 167.329, 68.990 169 M 103.015 169.050 C 102.991 171.484, 105.127 173.007, 108.450 172.924 L 111.500 172.848 108.200 171.652 C 106.385 170.994, 104.479 169.791, 103.965 168.978 C 103.152 167.692, 103.029 167.701, 103.015 169.050 M 58.125 183.590 C 47.391 205.622, 47.545 207.872, 59.870 209.111 C 63.517 209.477, 68.525 210.055, 71 210.395 L 75.500 211.013 72.140 209.459 C 70.291 208.604, 65.791 207.639, 62.140 207.315 C 49.941 206.231, 49.631 204.678, 58.206 187.590 C 63.323 177.393, 66.332 169.998, 65.644 169.310 C 65.436 169.103, 62.053 175.529, 58.125 183.590 M 126 173.091 C 124.625 173.689, 121.025 173.961, 118 173.695 C 112.734 173.234, 112.628 173.271, 115.500 174.561 C 119.116 176.186, 122.963 176.345, 126.466 175.013 C 127.998 174.431, 132.839 174.306, 138.281 174.709 L 147.500 175.393 142.174 176.606 C 135.501 178.125, 133.966 179.515, 140 178.573 C 142.475 178.186, 146.670 177.717, 149.323 177.529 C 155.214 177.112, 156.797 176, 151.500 176 C 146.296 176, 147.697 174.968, 154.185 174.023 C 159.002 173.322, 158.600 173.238, 149.897 173.125 C 144.615 173.056, 137.640 172.776, 134.397 172.502 C 131.151 172.228, 127.376 172.493, 126 173.091 M 123.500 179.353 C 118.528 181.096, 117.958 181.513, 120.174 181.787 C 122.546 182.081, 131 178.717, 131 177.480 C 131 176.800, 130.246 176.988, 123.500 179.353 M 94.431 183.517 C 94.018 185.715, 92.595 188.005, 90.635 189.624 C 88.873 191.079, 88.302 191.948, 89.332 191.607 C 90.339 191.273, 91.566 191, 92.059 191 C 93.394 191, 95.712 186.938, 96.481 183.250 C 96.900 181.242, 96.764 180, 96.125 180 C 95.556 180, 94.794 181.583, 94.431 183.517 M 112.166 190.917 C 109.911 197.917, 106.852 201.652, 98.141 208.037 C 94.497 210.709, 92.361 214.761, 93.825 216.225 C 94.358 216.758, 94.965 215.927, 95.313 214.187 C 95.737 212.065, 97.137 210.524, 100.351 208.640 C 107.572 204.409, 112.509 198.026, 114.001 190.994 C 115.766 182.676, 114.833 182.637, 112.166 190.917 M 80 192.706 C 79.175 193.008, 77.600 194.050, 76.500 195.023 C 75.400 195.995, 72.025 197.129, 69 197.542 C 64.009 198.224, 63.747 198.378, 66.176 199.205 C 69.199 200.236, 76.101 198.756, 78.238 196.619 C 78.968 195.889, 80.901 194.569, 82.533 193.686 C 85.525 192.067, 83.691 191.357, 80 192.706 M 90.127 196.756 C 91.111 199.741, 95.754 204.580, 96.713 203.620 C 96.938 203.396, 96.081 202.089, 94.811 200.716 C 93.540 199.344, 91.725 197.158, 90.777 195.860 C 89.057 193.504, 89.056 193.505, 90.127 196.756 M 112 200.500 C 112 200.775, 112.225 201, 112.500 201 C 112.775 201, 113 200.775, 113 200.500 C 113 200.225, 112.775 200, 112.500 200 C 112.225 200, 112 200.225, 112 200.500 M 365.500 206.461 C 364.950 206.668, 362.803 207.120, 360.729 207.467 C 350.217 209.227, 345.407 222.752, 352.551 230.461 C 354.832 232.922, 354.842 233.014, 352.946 234.029 C 336.578 242.789, 355.431 264.870, 373.435 258.025 C 375.883 257.094, 376 257.207, 376 260.525 C 376 264, 376 264, 382.534 264 L 389.068 264 388.784 253.250 L 388.500 242.500 382.500 242.500 C 377.066 242.500, 376.470 242.709, 376.185 244.717 C 375.425 250.057, 362.720 248.697, 362.187 243.218 C 361.740 238.635, 364.222 238, 382.565 238 L 398 238 398 249.546 L 398 261.091 404.750 260.796 L 411.500 260.500 411.770 238.750 L 412.039 217 417.020 217 L 422 217 422 239.046 L 422 261.091 428.750 260.796 L 435.500 260.500 435.770 238.750 L 436.039 217 440.020 217 C 444 217, 444 217, 444 212 L 444 207 421 207 L 398 207 398 217.500 L 398 228 392.393 228 C 387.424 228, 386.874 227.801, 387.563 226.250 C 390.590 219.434, 387.830 211.063, 381.728 208.550 C 378.460 207.204, 367.338 205.773, 365.500 206.461 M 445 206.500 C 445 206.775, 445.225 207, 445.500 207 C 445.775 207, 446 206.775, 446 206.500 C 446 206.225, 445.775 206, 445.500 206 C 445.225 206, 445 206.225, 445 206.500 M 257 213.500 L 257 219 275 219 L 293 219 293 231.883 C 293 246.694, 293.548 245.961, 282.450 245.986 C 275.545 246.002, 274 244.968, 274 240.335 C 274 235.945, 276.685 234.570, 283.657 235.390 L 289 236.017 289 230.625 C 289 224.262, 288.594 224.035, 277.200 224.014 C 264.694 223.990, 261 227.765, 261 240.567 C 261 254.973, 271.429 260.869, 289.689 256.787 C 292.723 256.109, 292.894 256.231, 293.189 259.287 C 293.500 262.500, 293.500 262.500, 300.250 262.796 L 307 263.091 307 250.153 C 307 235.468, 306.463 236.339, 316.131 235.328 C 323.256 234.584, 327 236.477, 327 240.823 C 327 244.981, 325.288 246, 318.300 246 L 312 246 312 251.369 C 312 257.416, 313.039 257.966, 324.500 257.987 C 337.419 258.012, 344.511 244.309, 338.326 231.274 C 335.331 224.963, 321.234 221.778, 310.243 224.930 C 307.035 225.850, 307 225.823, 307 222.430 L 307 219 325.500 219 L 344 219 344 213.500 L 344 208 300.500 208 L 257 208 257 213.500 M 446 209.500 C 446 209.775, 446.225 210, 446.500 210 C 446.775 210, 447 209.775, 447 209.500 C 447 209.225, 446.775 209, 446.500 209 C 446.225 209, 446 209.225, 446 209.500 M 79.500 220.897 C 79.775 224.415, 80 231.529, 80 236.706 C 80 243.493, 80.318 245.922, 81.139 245.414 C 82.533 244.553, 81.656 222.084, 80.050 217.500 C 79.179 215.012, 79.085 215.591, 79.500 220.897 M 364.750 218.080 C 362.741 219.250, 362.432 223.032, 364.200 224.800 C 367.258 227.858, 376 225.688, 376 221.871 C 376 217.761, 369.221 215.476, 364.750 218.080 M 91.645 227.203 C 87.661 249.257, 87.549 264.870, 91.356 267.537 C 94.613 269.818, 95.591 269.258, 93.058 266.562 C 89.822 263.118, 89.504 257.739, 91.489 240.094 C 93.044 226.280, 93.132 218.969, 91.645 227.203 M 81.285 263.500 L 81.500 271.500 90.204 272 C 95.206 272.287, 98.533 272.126, 98.026 271.622 C 97.540 271.138, 93.961 270.516, 90.072 270.237 L 83 269.731 82.985 264.116 C 82.976 261.027, 82.542 257.825, 82.020 257 C 81.384 255.995, 81.142 258.139, 81.285 263.500" stroke="none" fill="#4d4d4d" fill-rule="evenodd"/></svg>